<svg xmlns="http://www.w3.org/2000/svg" xmlns:xlink="http://www.w3.org/1999/xlink" version="1.1" width="640" height="480" viewBox="0 0 640 480" xml:space="preserve">
<desc>Created with Fabric.js 3.6.6</desc>
<defs>
</defs>
<g transform="matrix(1.5 0 0 1.47 317.45 250.23)"  >
<g style=""   >
		<g transform="matrix(1 0 0 1 0 0)"  >
<rect style="stroke: none; stroke-width: 1; stroke-dasharray: none; stroke-linecap: butt; stroke-dashoffset: 0; stroke-linejoin: miter; stroke-miterlimit: 4; fill: rgb(0,0,0); fill-opacity: 0; fill-rule: nonzero; opacity: 0.45;"  x="-168.215" y="-157.145" rx="0" ry="0" width="336.43" height="314.29" />
</g>
		<g transform="matrix(1.02 0 0 1 -2.33 -4.91)"  >
<path style="stroke: none; stroke-width: 1; stroke-dasharray: none; stroke-linecap: butt; stroke-dashoffset: 0; stroke-linejoin: miter; stroke-miterlimit: 4; fill: rgb(0,0,0); fill-rule: nonzero; opacity: 0.45;"  transform=" translate(-255.74, -810.95)" d="m 111.75 670.22 l 291.37 -1.42 l 5.86 284.29 s -228.99 -3.84 -306.48 -0.73 c 7.35 -70.31 9.25 -282.14 9.25 -282.14 z" stroke-linecap="round" />
</g>
		<g transform="matrix(1 0 0 1 0.27 -9.57)"  >
<linearGradient id="SVGID_10" gradientUnits="userSpaceOnUse" gradientTransform="matrix(1 0 0 1 217.41 -314.93)"  x1="461.18" y1="363.75" x2="200.96" y2="608.08">
<stop offset="0%" style="stop-color:rgb(247,236,154);stop-opacity: 1"/>
<stop offset="13.401%" style="stop-color:rgb(246,234,141);stop-opacity: 1"/>
<stop offset="45.674%" style="stop-color:rgb(245,233,138);stop-opacity: 1"/>
<stop offset="80.934%" style="stop-color:rgb(248,237,157);stop-opacity: 1"/>
<stop offset="100%" style="stop-color:rgb(245,233,138);stop-opacity: 1"/>
</linearGradient>
<path style="stroke: none; stroke-width: 1; stroke-dasharray: none; stroke-linecap: butt; stroke-dashoffset: 0; stroke-linejoin: miter; stroke-miterlimit: 4; fill: url(#SVGID_10); fill-rule: nonzero; opacity: 1;"  transform=" translate(-554.2, -180.65)" d="m 402.34 37.51 l 304.28 1.297 l -1.21 284.28 s -262.56 5.77 -298.49 -15.56 c -7.5 -36.06 -4.58 -270.02 -4.58 -270.02 z" stroke-linecap="round" />
</g>
</g>
</g>
</svg>